<svg width="14" height="15" viewBox="0 0 14 15" fill="none" xmlns="http://www.w3.org/2000/svg">
<path opacity="0.4" d="M9.44416 1.66667H4.55582C2.43249 1.66667 1.16666 2.9325 1.16666 5.05584V9.93834C1.16666 12.0675 2.43249 13.3333 4.55582 13.3333H9.43832C11.5617 13.3333 12.8275 12.0675 12.8275 9.94417V5.05584C12.8333 2.9325 11.5675 1.66667 9.44416 1.66667Z" fill="#31D3A3"/>
<path d="M9.76969 4.58333H6.95219C6.71302 4.58333 6.51469 4.78166 6.51469 5.02083C6.51469 5.25999 6.71302 5.45833 6.95219 5.45833H8.71386L4.21052 9.96166C4.04136 10.1308 4.04136 10.4108 4.21052 10.58C4.29802 10.6675 4.40886 10.7083 4.51969 10.7083C4.63052 10.7083 4.74136 10.6675 4.82886 10.58L9.33219 6.07666V7.83833C9.33219 8.07749 9.53052 8.27583 9.76969 8.27583C10.0089 8.27583 10.2072 8.07749 10.2072 7.83833V5.02083C10.2072 4.78166 10.0089 4.58333 9.76969 4.58333Z" fill="#31D3A3"/>
</svg>
