<svg width="14" height="14" viewBox="0 0 14 14" fill="none" xmlns="http://www.w3.org/2000/svg">
<path opacity="0.4" d="M9.44416 1.16666H4.55582C2.43249 1.16666 1.16666 2.43249 1.16666 4.55582V9.43832C1.16666 11.5675 2.43249 12.8333 4.55582 12.8333H9.43832C11.5617 12.8333 12.8275 11.5675 12.8275 9.44416V4.55582C12.8333 2.43249 11.5675 1.16666 9.44416 1.16666Z" fill="#F9BA33"/>
<path d="M9.76969 4.08334H6.95219C6.71302 4.08334 6.51469 4.28168 6.51469 4.52084C6.51469 4.76001 6.71302 4.95834 6.95219 4.95834H8.71386L4.21052 9.46168C4.04136 9.63084 4.04136 9.91084 4.21052 10.08C4.29802 10.1675 4.40886 10.2083 4.51969 10.2083C4.63052 10.2083 4.74136 10.1675 4.82886 10.08L9.33219 5.57668V7.33834C9.33219 7.57751 9.53052 7.77584 9.76969 7.77584C10.0089 7.77584 10.2072 7.57751 10.2072 7.33834V4.52084C10.2072 4.28168 10.0089 4.08334 9.76969 4.08334Z" fill="#F9BA33"/>
</svg>
