<svg width="15" height="14" viewBox="0 0 15 14" fill="none" xmlns="http://www.w3.org/2000/svg">
<path opacity="0.4" d="M9.94419 1.16666H5.05585C2.93252 1.16666 1.66669 2.43249 1.66669 4.55582V9.43832C1.66669 11.5675 2.93252 12.8333 5.05585 12.8333H9.93835C12.0617 12.8333 13.3275 11.5675 13.3275 9.44416V4.55582C13.3334 2.43249 12.0675 1.16666 9.94419 1.16666Z" fill="#1775E4"/>
<path d="M10.2697 4.08334H7.45222C7.21305 4.08334 7.01472 4.28168 7.01472 4.52084C7.01472 4.76001 7.21305 4.95834 7.45222 4.95834H9.21389L4.71055 9.46168C4.54139 9.63084 4.54139 9.91084 4.71055 10.08C4.79805 10.1675 4.90889 10.2083 5.01972 10.2083C5.13055 10.2083 5.24139 10.1675 5.32889 10.08L9.83222 5.57668V7.33834C9.83222 7.57751 10.0306 7.77584 10.2697 7.77584C10.5089 7.77584 10.7072 7.57751 10.7072 7.33834V4.52084C10.7072 4.28168 10.5089 4.08334 10.2697 4.08334Z" fill="#1775E4"/>
</svg>
