<svg width="15" height="15" viewBox="0 0 15 15" fill="none" xmlns="http://www.w3.org/2000/svg">
<path opacity="0.4" d="M9.94419 1.66667H5.05585C2.93252 1.66667 1.66669 2.9325 1.66669 5.05584V9.93834C1.66669 12.0675 2.93252 13.3333 5.05585 13.3333H9.93835C12.0617 13.3333 13.3275 12.0675 13.3275 9.94417V5.05584C13.3334 2.9325 12.0675 1.66667 9.94419 1.66667Z" fill="#FE3766"/>
<path d="M10.2697 4.58333H7.45222C7.21305 4.58333 7.01472 4.78166 7.01472 5.02083C7.01472 5.25999 7.21305 5.45833 7.45222 5.45833H9.21389L4.71055 9.96166C4.54139 10.1308 4.54139 10.4108 4.71055 10.58C4.79805 10.6675 4.90889 10.7083 5.01972 10.7083C5.13055 10.7083 5.24139 10.6675 5.32889 10.58L9.83222 6.07666V7.83833C9.83222 8.07749 10.0306 8.27583 10.2697 8.27583C10.5089 8.27583 10.7072 8.07749 10.7072 7.83833V5.02083C10.7072 4.78166 10.5089 4.58333 10.2697 4.58333Z" fill="#FE3766"/>
</svg>
